#!OML:ASF H:\Pregnant\Project 1\Capture day 1\Session 1\femalepreg.ASF
:FULLY-SPECIFIED
:DEGREES
1475
root 8.51313 20.2363 5.93832 -521.183 -27.3315 175.502
lowerback -9.64092 5.43651 10.9629
upperback -7.75443 5.73734 -1.1083
thorax -1.61861 2.1257 -6.75984
lowerneck -10.0618 18.8651 20.8227
upperneck 25.1063 26.4476 -14.1134
head 15.2827 11.9177 -3.71675
rclavicle 5.38706e-014 3.18055e-015
rhumerus -32.3073 -7.12037 -74.0834
rradius 33.1153
rwrist -7.18248
rhand -18.566 -19.8024
rfingers 7.12502
rthumb 7.72404 -49.6413
lclavicle 5.38706e-014 3.18055e-015
lhumerus -40.717 -10.6523 83.5167
lradius 34.3626
lwrist 41.9344
lhand -20.5905 -2.59531
lfingers 7.12502
lthumb 5.76975 27.3061
rfemur -35.9375 11.4892 17.4056
rtibia 42.9717
rfoot -16.5897 -20.289
rtoes -11.866
lfemur -30.9861 -19.8171 -18.9919
ltibia 25.1345
lfoot -14.7122 -7.26018
ltoes -29.0146
1476
root 8.52841 20.239 5.94612 -521.147 -27.9371 175.632
lowerback -9.66948 5.45941 11.0995
upperback -7.73825 5.7583 -1.10497
thorax -1.57235 2.13658 -6.82692
lowerneck -10.0895 18.8939 20.7714
upperneck 25.1439 26.4795 -14.0314
head 15.2864 11.9352 -3.66694
rclavicle 3.96575e-014 -2.38542e-014
rhumerus -32.2921 -7.01896 -74.103
rradius 32.6892
rwrist -6.8364
rhand -18.1368 -19.8348
rfingers 7.12502
rthumb 8.13827 -49.6581
lclavicle 3.96575e-014 -2.38542e-014
lhumerus -40.5807 -10.913 83.7217
lradius 34.7632
lwrist 41.7895
lhand -20.4334 -2.72328
lfingers 7.12502
lthumb 5.92136 27.174
rfemur -35.8606 11.3968 17.6262
rtibia 42.7761
rfoot -16.5225 -20.6509
rtoes -11.5626
lfemur -31.3396 -19.1308 -19.2211
ltibia 25.756
lfoot -14.7229 -5.56468
ltoes -29.8469
1477
root 8.54318 20.2419 5.95373 -521.131 -28.5335 175.784
lowerback -9.694 5.48815 11.2372
upperback -7.71916 5.78746 -1.09803
thorax -1.52375 2.15203 -6.88985
lowerneck -10.161 18.9096 20.6948
upperneck 25.1984 26.4834 -13.9252
head 15.2917 11.9383 -3.6092
rclavicle -6.85807e-015 1.43125e-014
rhumerus -32.291 -6.98388 -74.0931
rradius 32.268
rwrist -6.47491
rhand -17.6562 -19.8778
rfingers 7.12502
rthumb 8.60211 -49.6826
lclavicle -6.85807e-015 1.43125e-014
lhumerus -40.4502 -11.1955 83.94
lradius 35.1481
lwrist 41.6255
lhand -20.2323 -2.8443
lfingers 7.12502
lthumb 6.11559 27.0474
rfemur -35.7644 11.3045 17.8657
rtibia 42.5615
rfoot -16.4623 -20.9922
rtoes -11.2309
lfemur -31.6706 -18.3055 -19.5151
ltibia 26.4178
lfoot -14.6463 -3.62681
ltoes -30.6552
1478
root 8.55747 20.2448 5.96109 -521.135 -29.1205 175.955
lowerback -9.71385 5.5208 11.3745
upperback -7.70119 5.8222 -1.08898
thorax -1.4779 2.17014 -6.94985
lowerneck -10.2603 18.9115 20.6084
upperneck 25.2622 26.4602 -13.8058
head 15.2969 11.9289 -3.55064
rclavicle -8.90555e-014 -1.90833e-014
rhumerus -32.3096 -7.01552 -74.0581
rradius 31.853
rwrist -6.09144
rhand -17.1485 -19.917
rfingers 7.12502
rthumb 9.09202 -49.701
lclavicle -8.90555e-014 -1.90833e-014
lhumerus -40.3313 -11.4931 84.1642
lradius 35.5138
lwrist 41.441
lhand -19.9919 -2.96443
lfingers 7.12502
lthumb 6.34768 26.9205
rfemur -35.6521 11.2103 18.1228
rtibia 42.33
rfoot -16.4089 -21.3126
rtoes -10.8684
lfemur -31.9801 -17.3546 -19.864
ltibia 27.1093
lfoot -14.4711 -1.50153
ltoes -31.3825
1479
root 8.57133 20.2478 5.96807 -521.154 -29.6988 176.144
lowerback -9.73444 5.55286 11.5065
upperback -7.68381 5.85605 -1.07568
thorax -1.43315 2.1879 -7.0024
lowerneck -10.3741 18.9021 20.5245
upperneck 25.3258 26.4172 -13.6879
head 15.3018 11.9106 -3.49739
rclavicle 1.36466e-013 3.65764e-014
rhumerus -32.3443 -7.10866 -74.003
rradius 31.4427
rwrist -5.67611
rhand -16.6499 -19.9358
rfingers 7.12502
rthumb 9.57314 -49.6983
lclavicle 1.36466e-013 3.65764e-014
lhumerus -40.2253 -11.7918 84.3876
lradius 35.8582
lwrist 41.2372
lhand -19.7201 -3.08763
lfingers 7.12502
lthumb 6.61003 26.7892
rfemur -35.5267 11.1124 18.396
rtibia 42.0837
rfoot -16.3618 -21.6132
rtoes -10.4786
lfemur -32.2692 -16.2951 -20.2574
ltibia 27.818
lfoot -14.1976 0.75188
ltoes -31.9943
1480
root 8.5848 20.2509 5.97452 -521.186 -30.2694 176.347
lowerback -9.77129 5.57914 11.6234
upperback -7.65883 5.88064 -1.0517
thorax -1.37532 2.20298 -7.03472
lowerneck -10.4951 18.8854 20.447
upperneck 25.3774 26.3646 -13.5874
head 15.3056 11.8869 -3.45355
rclavicle 6.32135e-014 -2.06736e-014
rhumerus -32.3782 -7.25287 -73.9292
rradius 31.0353
rwrist -5.22612
rhand -16.1907 -19.9307
rfingers 7.12502
rthumb 10.0162 -49.6724
lclavicle 6.32135e-014 -2.06736e-014
lhumerus -40.1232 -12.0738 84.608
lradius 36.1796
lwrist 41.0171
lhand -19.4255 -3.21624
lfingers 7.12502
lthumb 6.89446 26.6515
rfemur -35.3903 11.0084 18.6832
rtibia 41.8251
rfoot -16.3204 -21.8955
rtoes -10.0701
lfemur -32.5385 -15.1436 -20.6875
ltibia 28.5314
lfoot -13.8343 3.076
ltoes -32.474
1481
root 8.59794 20.254 5.98029 -521.23 -30.8341 176.562
lowerback -9.83692 5.59657 11.7152
upperback -7.62033 5.89074 -1.01175
thorax -1.29366 2.21422 -7.03508
lowerneck -10.6198 18.8648 20.3758
upperneck 25.4107 26.3108 -13.5135
head 15.3081 11.8608 -3.42074
rclavicle -8.88567e-014 -1.59028e-014
rhumerus -32.4004 -7.43939 -73.8352
rradius 30.6312
rwrist -4.75067
rhand -15.7891 -19.904
rfingers 7.12502
rthumb 10.4036 -49.6266
lclavicle -8.88567e-014 -1.59028e-014
lhumerus -40.019 -12.3303 84.8271
lradius 36.4772
lwrist 40.7848
lhand -19.1155 -3.35052
lfingers 7.12502
lthumb 7.19364 26.5072
rfemur -35.2451 10.8963 18.9819
rtibia 41.5567
rfoot -16.2842 -22.1622
rtoes -9.65397
lfemur -32.788 -13.9158 -21.149
ltibia 29.2372
lfoot -13.3935 5.41933
ltoes -32.8152
1482
root 8.61074 20.2571 5.98524 -521.281 -31.3949 176.785
lowerback -9.94284 5.60378 11.7726
upperback -7.56204 5.88345 -0.951384
thorax -1.17693 2.22162 -6.99293
lowerneck -10.7497 18.8432 20.3056
upperneck 25.4221 26.262 -13.4704
head 15.3093 11.8337 -3.39802
rclavicle -3.8763e-014 -3.33958e-014
rhumerus -32.4004 -7.66043 -73.7176
rradius 30.2325
rwrist -4.26648
rhand -15.4506 -19.8684
rfingers 7.12502
rthumb 10.7301 -49.5744
lclavicle -3.8763e-014 -3.33958e-014
lhumerus -39.9045 -12.5562 85.049
lradius 36.7489
lwrist 40.5444
lhand -18.7964 -3.48792
lfingers 7.12502
lthumb 7.50168 26.3591
rfemur -35.0926 10.7745 19.2894
rtibia 41.2814
rfoot -16.2536 -22.4153
rtoes -9.23977
lfemur -33.0178 -12.6251 -21.6381
ltibia 29.925
lfoot -12.8859 7.73469
ltoes -33.0156
1483
root 8.62319 20.2602 5.98926 -521.339 -31.9538 177.014
lowerback -10.0874 5.60292 11.7919
upperback -7.48701 5.86207 -0.87307
thorax -1.02871 2.22635 -6.90871
lowerneck -10.8852 18.82 20.2341
upperneck 25.4163 26.2162 -13.4513
head 15.3091 11.8055 -3.38308
rclavicle 2.9122e-014 3.65764e-014
rhumerus -32.3861 -7.91583 -73.5743
rradius 29.8449
rwrist -3.79781
rhand -15.1636 -19.8429
rfingers 7.12502
rthumb 11.007 -49.5343
lclavicle 2.9122e-014 3.65764e-014
lhumerus -39.7821 -12.7613 85.277
lradius 36.9923
lwrist 40.3003
lhand -18.4736 -3.62472
lfingers 7.12502
lthumb 7.81321 26.2109
rfemur -34.9347 10.6422 19.6026
rtibia 41.0028
rfoot -16.2296 -22.6573
rtoes -8.83321
lfemur -33.2286 -11.2836 -22.1528
ltibia 30.5861
lfoot -12.3188 9.97661
ltoes -33.0742
1484
root 8.63529 20.2633 5.99226 -521.402 -32.5126 177.244
lowerback -10.2616 5.59631 11.7731
upperback -7.40319 5.83098 -0.78226
thorax -0.861005 2.22905 -6.78901
lowerneck -11.026 18.7945 20.1598
upperneck 25.4023 26.1694 -13.4435
head 15.308 11.7752 -3.37206
rclavicle -1.13108e-013 -5.40694e-014
rhumerus -32.3736 -8.20969 -73.4056
rradius 29.4748
rwrist -3.36094
rhand -14.9197 -19.8403
rfingers 7.12502
rthumb 11.2422 -49.519
lclavicle -1.13108e-013 -5.40694e-014
lhumerus -39.6589 -12.9545 85.5107
lradius 37.203
lwrist 40.0556
lhand -18.1511 -3.75782
lfingers 7.12502
lthumb 8.12446 26.066
rfemur -34.7737 10.5001 19.9188
rtibia 40.7246
rfoot -16.2138 -22.8913
rtoes -8.4354
lfemur -33.4217 -9.90387 -22.6898
ltibia 31.2142
lfoot -11.6958 12.1016
ltoes -32.9931
1485
root 8.64703 20.2661 5.99415 -521.467 -33.0725 177.473
lowerback -10.4451 5.58619 11.723
upperback -7.32591 5.79571 -0.689297
thorax -0.698577 2.22944 -6.65006
lowerneck -11.1666 18.764 20.0861
upperneck 25.3916 26.1129 -13.4287
head 15.305 11.7416 -3.36119
rclavicle 8.49804e-014 5.08889e-014
rhumerus -32.3918 -8.55025 -73.2174
rradius 29.128
rwrist -2.95973
rhand -14.7183 -19.8663
rfingers 7.12502
rthumb 11.4364 -49.5344
lclavicle 8.49804e-014 5.08889e-014
lhumerus -39.5525 -13.1488 85.7445
lradius 37.3783
lwrist 39.8159
lhand -17.8364 -3.88455
lfingers 7.12502
lthumb 8.42821 25.9273
rfemur -34.6119 10.3492 20.2352
rtibia 40.4516
rfoot -16.208 -23.1203
rtoes -8.04641
lfemur -33.5986 -8.49988 -23.2455
ltibia 31.8038
lfoot -11.0201 14.0671
ltoes -32.7823
1486
root 8.65836 20.2685 5.99486 -521.534 -33.6342 177.7
lowerback -10.6206 5.57422 11.6491
upperback -7.26756 5.7607 -0.603298
thorax -0.561829 2.22733 -6.50698
lowerneck -11.3039 18.7268 20.0162
upperneck 25.3938 26.0398 -13.3911
head 15.3001 11.7038 -3.34702
rclavicle -1.06747e-013 -3.18055e-014
rhumerus -32.4633 -8.94184 -73.0165
rradius 28.8093
rwrist -2.59628
rhand -14.5639 -19.9211
rfingers 7.12502
rthumb 11.5853 -49.5809
lclavicle -1.06747e-013 -3.18055e-014
lhumerus -39.475 -13.3512 85.9715
lradius 37.515
lwrist 39.5855
lhand -17.5359 -4.00165
lfingers 7.12502
lthumb 8.71819 25.7983
rfemur -34.4513 10.1902 20.5507
rtibia 40.1883
rfoot -16.2152 -23.3462
rtoes -7.6627
lfemur -33.76 -7.08634 -23.8144
ltibia 32.3499
lfoot -10.3008 15.8295
ltoes -32.461
1487
root 8.66927 20.2703 5.99434 -521.603 -34.1983 177.925
lowerback -10.7774 5.56029 11.5576
upperback -7.23453 5.72709 -0.52952
thorax -0.462043 2.22207 -6.36972
lowerneck -11.437 18.6829 19.951
upperneck 25.4146 25.9473 -13.321
head 15.2934 11.6616 -3.32663
rclavicle 1.08338e-013 2.70347e-014
rhumerus -32.5991 -9.38534 -72.8091
rradius 28.5202
rwrist -2.26341
rhand -14.4688 -19.9971
rfingers 7.12502
rthumb 11.677 -49.6516
lclavicle 1.08338e-013 2.70347e-014
lhumerus -39.4326 -13.5613 86.1849
lradius 37.612
lwrist 39.3709
lhand -17.2573 -4.10688
lfingers 7.12502
lthumb 8.98702 25.6817
rfemur -34.2933 10.0238 20.8652
rtibia 39.9388
rfoot -16.2372 -23.5707
rtoes -7.28316
lfemur -33.9066 -5.67883 -24.3895
ltibia 32.8473
lfoot -9.55838 17.3474
ltoes -32.0637
